<svg width="22" height="20" viewBox="0 0 22 20" fill="none" xmlns="http://www.w3.org/2000/svg">
<path d="M21 17.0798V3.22913C21 2.55775 20.5643 1.95401 19.8999 1.70467C17.3964 0.765193 14.6036 0.765193 12.1001 1.70467L11 2.11751L9.89986 1.70467C7.39638 0.765193 4.60362 0.765193 2.10014 1.70467C1.43569 1.95401 1 2.55775 1 3.22913V17.0798C1 18.0017 1.99247 18.6321 2.90485 18.2897C4.89175 17.5441 7.10825 17.5441 9.09515 18.2897L10.9863 18.9994H11.0137L12.9049 18.2897C14.8918 17.5441 17.1082 17.5441 19.0951 18.2897C20.0075 18.6321 21 18.0017 21 17.0798Z" stroke="#ABABAB" stroke-width="1.5"/>
</svg>
