<svg width="24" height="24" viewBox="0 0 24 24" fill="none" xmlns="http://www.w3.org/2000/svg">
<path d="M22 19.0798V5.22913C22 4.55775 21.5643 3.95401 20.8999 3.70467C18.3964 2.76519 15.6036 2.76519 13.1001 3.70467L12 4.11751L10.8999 3.70467C8.39638 2.76519 5.60362 2.76519 3.10014 3.70467C2.43569 3.95401 2 4.55775 2 5.22913V19.0798C2 20.0017 2.99247 20.6321 3.90485 20.2897C5.89175 19.5441 8.10825 19.5441 10.0951 20.2897L11.9863 20.9994H12.0137L13.9049 20.2897C15.8918 19.5441 18.1082 19.5441 20.0951 20.2897C21.0075 20.6321 22 20.0017 22 19.0798Z" stroke="#ABABAB" stroke-width="1.5"/>
<path opacity="0.3" d="M12 4.11774V20.9909M12 20.9909C12 20.9975 12.0072 21.0021 12.0138 20.9996M12 20.9909C12 20.9975 11.9929 21.0021 11.9863 20.9996" stroke="#ABABAB" stroke-width="1.5"/>
</svg>
