<svg width="22" height="20" viewBox="0 0 22 20" fill="none" xmlns="http://www.w3.org/2000/svg">
<path fill-rule="evenodd" clip-rule="evenodd" d="M10.25 1.03499L10.1634 1.00248C7.49 -0.000745505 4.51 -0.000745803 1.83663 1.00248C0.901734 1.35332 0.25 2.22213 0.25 3.22913V17.0798C0.25 18.5947 1.83232 19.4933 3.16836 18.9919C4.98537 18.31 7.01463 18.31 8.83164 18.9919L10.25 19.5241V1.03499ZM11.75 19.5241L13.1684 18.9919C14.9854 18.31 17.0146 18.31 18.8316 18.9919C20.1677 19.4933 21.75 18.5947 21.75 17.0798V3.22913C21.75 2.22213 21.0983 1.35332 20.1634 1.00248C17.49 -0.000745803 14.51 -0.000745505 11.8366 1.00248L11.75 1.03499V19.5241Z" fill="#8DA05E"/>
</svg>
