<svg width="30" height="30" viewBox="0 0 30 30" fill="none" xmlns="http://www.w3.org/2000/svg">
<path d="M14.6942 1.04311C14.6401 1.04134 14.5838 1.04663 14.5258 1.06134C12.8874 1.48278 11.7206 2.98111 11.7188 4.68774C11.7188 6.42917 12.9184 7.89339 14.5322 8.31139V9.23334C13.4947 10.8503 11.1685 11.9306 8.99231 13.2937C7.88184 13.9893 6.81148 14.7719 6.00952 15.7958C5.20758 16.8198 4.6875 18.0976 4.6875 19.6887C4.6875 21.8028 5.29484 23.3343 5.96924 24.3734H24.0289C24.7039 23.3343 25.3143 21.8028 25.3143 19.6887C25.3143 18.0976 24.7906 16.8198 23.9886 15.7958C23.1867 14.7719 22.12 13.9893 21.0095 13.2937C18.8358 11.9321 16.509 10.8527 15.4697 9.23885V8.43499C17.1648 8.43322 18.6438 7.2909 19.0823 5.66186C19.3187 5.20343 18.7493 4.75511 18.3591 5.09238C17.9407 5.43526 17.4159 5.62559 16.875 5.62618C15.575 5.62618 14.5322 4.57966 14.5322 3.27969C14.5175 2.72273 14.7557 2.19347 15.0613 1.79837C15.3272 1.45471 15.0729 1.05715 14.6942 1.04306L14.6942 1.04311ZM6.09193 25.311C5.32097 25.311 4.68751 25.949 4.68751 26.72V28.5913C4.68703 28.7157 4.73596 28.8351 4.82352 28.9233C4.91108 29.0116 5.03011 29.0614 5.15442 29.0619H24.8438C24.9056 29.0622 24.9669 29.0501 25.0241 29.0266C25.0813 29.003 25.1333 28.9683 25.177 28.9246C25.2208 28.8809 25.2554 28.8289 25.279 28.7717C25.3026 28.7145 25.3146 28.6532 25.3143 28.5913V26.72C25.3143 25.949 24.6772 25.311 23.9063 25.311H6.09193Z" fill="#212121"/>
</svg>
