<svg width="24" height="24" viewBox="0 0 24 24" fill="none" xmlns="http://www.w3.org/2000/svg">
<path d="M20.8291 0L17.0889 3.74022C16.3924 4.43672 16.2515 5.48106 16.665 6.31902L15.4388 7.54528C14.6459 7.16755 13.6686 7.30139 13.0067 7.9468C12.6223 7.63027 12.1444 7.45812 11.6399 7.45812C11.0643 7.45812 10.5232 7.68228 10.1162 8.08926C10.0102 8.19528 9.91689 8.31059 9.83644 8.43308C9.53874 8.28229 9.2079 8.20193 8.86451 8.20193C8.28892 8.20193 7.74781 8.42609 7.34083 8.83312C7.23371 8.94019 7.14047 9.05593 7.06065 9.17799C6.25243 8.77029 5.23926 8.90298 4.56512 9.57712C4.31276 9.82948 4.13678 10.1295 4.03603 10.4484C3.35352 10.3128 2.61756 10.5088 2.08966 11.0368C1.56177 11.5647 1.36582 12.3006 1.50129 12.9831C1.18242 13.0838 0.882366 13.2598 0.630008 13.5122C-0.181705 14.324 -0.209 15.6275 0.547836 16.4725C-0.209 17.3175 -0.181705 18.621 0.630008 19.4328C0.883324 19.6862 1.18477 19.8626 1.50503 19.9631C1.37099 20.6445 1.56728 21.3787 2.09421 21.9057C2.50124 22.3127 3.04235 22.5368 3.61794 22.5368C3.76031 22.5368 3.90056 22.523 4.03718 22.4962C4.13784 22.816 4.31406 23.1169 4.56704 23.3699C4.98714 23.79 5.53893 24 6.09077 24C6.60525 24 7.11959 23.8172 7.52739 23.452C7.93514 23.8172 8.44948 24 8.96392 24C9.51571 24 10.0675 23.7899 10.4876 23.3698C10.74 23.1175 10.916 22.8174 11.0167 22.4985C11.1562 22.5262 11.2978 22.5403 11.4394 22.5403C11.9912 22.5403 12.543 22.3303 12.9631 21.9102C13.491 21.3823 13.687 20.6463 13.5515 19.9638C13.8704 19.863 14.1704 19.6871 14.4228 19.4347C15.0969 18.7606 15.2296 17.7474 14.8219 16.9392C14.9439 16.8594 15.0597 16.7662 15.1668 16.6591C15.5738 16.2521 15.7979 15.7109 15.7979 15.1353C15.7979 14.7919 15.7176 14.4611 15.5668 14.1634C15.6893 14.0829 15.8046 13.9896 15.9106 13.8836C16.3176 13.4766 16.5418 12.9354 16.5418 12.3599C16.5418 11.8555 16.3696 11.3776 16.0531 10.9932C16.6985 10.3312 16.8324 9.35392 16.4547 8.56103L17.6808 7.33482C17.9929 7.48882 18.3335 7.56649 18.6743 7.56649C19.2485 7.56649 19.8226 7.34794 20.2596 6.91084L23.9998 3.17067L20.8291 0ZM21.9681 3.17067L20.8291 4.30973L19.69 3.17067L20.8291 2.0316L21.9681 3.17067ZM14.0024 8.98166C14.1424 8.84164 14.3264 8.77163 14.5103 8.77163C14.6943 8.77163 14.8782 8.84164 15.0183 8.98166C15.2984 9.26174 15.2984 9.71743 15.0183 9.99746C14.7382 10.2775 14.2825 10.2775 14.0025 9.99751C13.8668 9.8618 13.7921 9.68146 13.7921 9.48958C13.792 9.29771 13.8668 9.11732 14.0024 8.98166ZM13.8552 14.4489C13.9656 14.4829 14.0668 14.5435 14.1509 14.6274C14.2865 14.7631 14.3612 14.9435 14.3612 15.1354C14.3612 15.3272 14.2865 15.5076 14.1509 15.6433C13.8708 15.9233 13.4151 15.9233 13.1351 15.6432C12.9994 15.5075 12.9247 15.3272 12.9247 15.1353C12.9247 14.9434 12.9994 14.7631 13.1351 14.6274C13.2707 14.4917 13.4511 14.417 13.643 14.417C13.7117 14.417 13.7787 14.427 13.843 14.4455C13.8471 14.4466 13.8511 14.4479 13.8552 14.4489ZM9.9156 18.8628C9.66324 19.1152 9.48726 19.4152 9.38651 19.7341C8.74072 19.6059 8.04729 19.7746 7.52729 20.2402C7.00831 19.7755 6.31655 19.6064 5.67181 19.7332C5.57125 19.413 5.39489 19.1117 5.14157 18.8584C4.89261 18.6094 4.59338 18.4292 4.26684 18.3266C4.39312 17.6822 4.22398 16.9911 3.75954 16.4725C4.22523 15.9525 4.39393 15.2591 4.26569 14.6133C4.58461 14.5125 4.88462 14.3365 5.13698 14.0842C5.38933 13.8318 5.56527 13.5318 5.66602 13.2129C5.80546 13.2406 5.94706 13.2547 6.08871 13.2547C6.6405 13.2547 7.19228 13.0446 7.61239 12.6246C7.71927 12.5177 7.81241 12.4021 7.89214 12.2804C8.18989 12.4313 8.52083 12.5117 8.86436 12.5117C9.43995 12.5117 9.98111 12.2875 10.3881 11.8805C10.4949 11.7737 10.588 11.6583 10.6676 11.5366C10.9654 11.6874 11.2963 11.7678 11.6398 11.7678C11.8862 11.7678 12.1263 11.7265 12.3523 11.6475C12.2734 11.8735 12.2319 12.1135 12.2319 12.36C12.2319 12.7034 12.3123 13.0343 12.4632 13.3321C12.3415 13.4118 12.2261 13.5049 12.1193 13.6117C11.7123 14.0187 11.4881 14.5598 11.4881 15.1354C11.4881 15.4789 11.5685 15.8099 11.7194 16.1076C11.5976 16.1874 11.4821 16.2805 11.3752 16.3874C10.8473 16.9153 10.6514 17.6512 10.7869 18.3338C10.468 18.4345 10.168 18.6104 9.9156 18.8628ZM14.8947 12.8678C14.7591 13.0035 14.5787 13.0782 14.3868 13.0782C14.195 13.0782 14.0146 13.0035 13.8789 12.8678C13.7433 12.7322 13.6685 12.5518 13.6685 12.36C13.6685 12.1681 13.7433 11.9877 13.8789 11.852H13.879C14.0146 11.7164 14.195 11.6416 14.3868 11.6416C14.5787 11.6416 14.7591 11.7164 14.8948 11.852C15.0304 11.9877 15.1051 12.1681 15.1051 12.36C15.1051 12.5518 15.0304 12.7321 14.8947 12.8678ZM11.132 9.10506C11.2677 8.9694 11.448 8.8947 11.6399 8.8947C11.8318 8.8947 12.0121 8.9694 12.1478 9.10506C12.2835 9.24077 12.3582 9.42111 12.3582 9.61299C12.3582 9.80482 12.2835 9.9852 12.1478 10.1209V10.1209C12.0121 10.2566 11.8318 10.3313 11.6399 10.3313C11.448 10.3313 11.2677 10.2566 11.1319 10.1209C10.9963 9.98525 10.9216 9.80486 10.9216 9.61303C10.9216 9.42111 10.9963 9.24072 11.132 9.10506ZM8.35653 9.84887C8.49219 9.71321 8.67258 9.63851 8.86441 9.63851C9.05629 9.63851 9.23663 9.71321 9.37233 9.84887C9.45633 9.93291 9.51685 10.0341 9.55085 10.1446C9.55191 10.1487 9.55315 10.1527 9.55425 10.1568C9.57278 10.221 9.58274 10.2881 9.58274 10.3568C9.58274 10.5487 9.508 10.729 9.37233 10.8647C9.23667 11.0004 9.05629 11.0751 8.86441 11.0751C8.67258 11.0751 8.49219 11.0004 8.35653 10.8647C8.07645 10.5846 8.07645 10.129 8.35653 9.84887ZM5.58083 10.5929C5.72085 10.4529 5.90483 10.3829 6.08875 10.3829C6.27268 10.3829 6.45661 10.4529 6.59668 10.5929C6.87676 10.873 6.87676 11.3287 6.59668 11.6087C6.3166 11.8888 5.86091 11.8888 5.58088 11.6088C5.44522 11.4731 5.37047 11.2927 5.37047 11.1008C5.37042 10.909 5.44517 10.7286 5.58083 10.5929ZM3.10537 12.0526C3.24103 11.9169 3.42142 11.8422 3.6133 11.8422C3.80517 11.8422 3.98551 11.9169 4.12117 12.0526C4.40126 12.3327 4.40126 12.7883 4.12117 13.0684C3.84109 13.3484 3.38541 13.3485 3.10537 13.0684C2.82529 12.7883 2.82529 12.3327 3.10537 12.0526ZM1.64571 14.528C1.78138 14.3924 1.96176 14.3176 2.15364 14.3176C2.34552 14.3176 2.52586 14.3924 2.66152 14.528C2.9416 14.8081 2.9416 15.2638 2.66152 15.5438C2.38148 15.8239 1.9258 15.8239 1.64571 15.5438C1.36563 15.2638 1.36563 14.8081 1.64571 14.528ZM1.64571 17.4012C1.78578 17.2612 1.96966 17.1912 2.15364 17.1912C2.33757 17.1912 2.52155 17.2612 2.66152 17.4012C2.9416 17.6813 2.9416 18.137 2.66152 18.417C2.52586 18.5527 2.34547 18.6274 2.15359 18.6274C1.96171 18.6274 1.78138 18.5527 1.64571 18.417C1.36563 18.137 1.36563 17.6813 1.64571 17.4012ZM3.10992 20.89C2.97426 20.7543 2.89951 20.5739 2.89951 20.382C2.89951 20.1902 2.97426 20.0098 3.10992 19.8742C3.24558 19.7385 3.42597 19.6637 3.6178 19.6637C3.80968 19.6637 3.99001 19.7385 4.12572 19.8742C4.40576 20.1542 4.40576 20.6099 4.12572 20.89C3.99006 21.0256 3.80968 21.1003 3.6178 21.1003C3.42597 21.1003 3.24563 21.0256 3.10992 20.89ZM6.5986 22.3541C6.31851 22.6342 5.86283 22.6342 5.58275 22.3541C5.44708 22.2184 5.37233 22.0381 5.37233 21.8462C5.37233 21.6543 5.44708 21.474 5.58275 21.3383C5.86288 21.0582 6.31856 21.0582 6.59855 21.3383C6.87863 21.6183 6.87863 22.074 6.5986 22.3541ZM9.47175 22.3541C9.19166 22.6341 8.73598 22.6341 8.45594 22.3541C8.17586 22.074 8.17586 21.6183 8.45594 21.3383C8.73598 21.0582 9.19166 21.0582 9.47175 21.3383C9.60741 21.4739 9.68216 21.6543 9.68216 21.8462C9.68216 22.0381 9.60741 22.2184 9.47175 22.3541ZM11.9472 20.8944C11.6671 21.1744 11.2114 21.1744 10.9314 20.8945C10.6513 20.6144 10.6513 20.1587 10.9314 19.8786C11.2114 19.5985 11.6671 19.5985 11.9472 19.8786C12.0829 20.0143 12.1576 20.1947 12.1576 20.3865C12.1576 20.5784 12.0829 20.7588 11.9472 20.8944ZM13.4069 18.419C13.2712 18.5546 13.0908 18.6293 12.8989 18.6293C12.7071 18.6293 12.5267 18.5546 12.3911 18.419C12.111 18.1389 12.111 17.6832 12.3911 17.4032C12.6711 17.1231 13.1268 17.1231 13.4069 17.4032C13.6869 17.6832 13.6869 18.1389 13.4069 18.419ZM18.6743 6.13097C18.4591 6.13097 18.2568 6.04717 18.1047 5.89508C17.9526 5.74295 17.8688 5.54068 17.8688 5.32553C17.8688 5.11038 17.9526 4.90811 18.1047 4.75597L18.6743 4.18642L19.8133 5.32548L19.2438 5.89503C19.0916 6.04722 18.8894 6.13097 18.6743 6.13097Z" fill="#ABABAB"/>
</svg>
