<svg width="24" height="24" viewBox="0 0 24 24" fill="none" xmlns="http://www.w3.org/2000/svg">
<path d="M13.0441 11.6935C12.4658 12.2719 12.4658 13.2095 13.0441 13.7878C13.6224 14.3661 14.56 14.3661 15.1383 13.7878C15.7166 13.2095 15.7166 12.2719 15.1383 11.6935C14.56 11.1153 13.6224 11.1153 13.0441 11.6935Z" fill="#8DA05E"/>
<path d="M12.277 14.5545C11.6987 15.1328 11.6987 16.0704 12.277 16.6488C12.8553 17.2271 13.7929 17.2271 14.3712 16.6488C14.9495 16.0704 14.9495 15.1328 14.3712 14.5545C13.7929 13.9762 12.8553 13.9762 12.277 14.5545Z" fill="#8DA05E"/>
<path d="M12.0997 22.0616C12.678 21.4833 12.678 20.5457 12.0997 19.9674C12.0097 19.8775 11.9111 19.8016 11.8066 19.7396C12.3742 20.0739 13.1169 19.9974 13.6043 19.5099C14.1826 18.9317 14.1826 17.994 13.6043 17.4157C13.026 16.8375 12.0884 16.8375 11.5101 17.4157C10.9318 17.994 10.9318 18.9317 11.5101 19.5099C11.6 19.5999 11.6986 19.6757 11.8032 19.7377C11.2356 19.4034 10.4929 19.48 10.0055 19.9674C9.51799 20.455 9.44148 21.1978 9.77585 21.7654C9.7139 21.6608 9.63793 21.5621 9.54795 21.4721C8.96963 20.8938 8.03207 20.8938 7.45376 21.4721C6.87544 22.0504 6.87544 22.988 7.45376 23.5663C8.03207 24.1446 8.96968 24.1446 9.54795 23.5663C10.0354 23.0788 10.1119 22.336 9.77758 21.7683C9.83957 21.873 9.91549 21.9717 10.0055 22.0617C10.5838 22.64 11.5214 22.64 12.0997 22.0616Z" fill="#8DA05E"/>
<path d="M6.58654 21.4721C6.00822 20.8938 5.07061 20.8938 4.49229 21.4721C3.91403 22.0504 3.91403 22.988 4.49229 23.5663C5.07061 24.1446 6.00822 24.1446 6.58654 23.5663C7.1648 22.988 7.1648 22.0504 6.58654 21.4721Z" fill="#8DA05E"/>
<path d="M10.2121 10.9562C10.7904 11.5345 11.7279 11.5345 12.3062 10.9562C12.8846 10.3779 12.8846 9.44026 12.3062 8.86199C11.7279 8.28368 10.7904 8.28368 10.2121 8.86199C9.63374 9.44026 9.63374 10.3779 10.2121 10.9562Z" fill="#8DA05E"/>
<path d="M7.35122 11.723C7.92953 12.3012 8.8671 12.3012 9.44541 11.723C10.0237 11.1446 10.0237 10.207 9.44541 9.62872C8.8671 9.0504 7.92953 9.0504 7.35122 9.62872C6.7729 10.207 6.7729 11.1446 7.35122 11.723Z" fill="#8DA05E"/>
<path d="M2.52798 16.5463C3.10629 15.968 3.10629 15.0304 2.52798 14.452C2.43799 14.3621 2.33932 14.2861 2.23463 14.2241C2.80228 14.5585 3.54511 14.482 4.0326 13.9946C4.52004 13.5071 4.5966 12.7644 4.26233 12.1968C4.32428 12.3014 4.40015 12.4 4.49008 12.4899C5.0684 13.0682 6.00601 13.0682 6.58428 12.4899C7.16259 11.9116 7.16259 10.9741 6.58428 10.3957C6.00601 9.81742 5.06835 9.81742 4.49008 10.3957C4.00264 10.8832 3.92608 11.6258 4.26035 12.1935C4.19841 12.0889 4.12249 11.9902 4.03255 11.9003C3.45424 11.322 2.51663 11.322 1.93831 11.9003C1.36005 12.4786 1.36005 13.4162 1.93831 13.9946C2.0283 14.0845 2.12697 14.1605 2.23166 14.2225C1.66401 13.8881 0.921226 13.9645 0.433736 14.452C-0.144579 15.0304 -0.144579 15.968 0.433736 16.5463C1.0121 17.1245 1.94971 17.1245 2.52798 16.5463Z" fill="#8DA05E"/>
<path d="M1.48083 19.9417C2.29867 19.9417 2.96166 19.2787 2.96166 18.4608C2.96166 17.643 2.29867 16.98 1.48083 16.98C0.662991 16.98 0 17.643 0 18.4608C0 19.2787 0.662991 19.9417 1.48083 19.9417Z" fill="#8DA05E"/>
<path d="M4.03721 19.9629C3.45889 19.3845 2.52133 19.3845 1.94301 19.9629C1.3647 20.5412 1.3647 21.4788 1.94301 22.0571C2.52133 22.6354 3.45889 22.6354 4.03721 22.0571C4.61547 21.4788 4.61547 20.5412 4.03721 19.9629Z" fill="#8DA05E"/>
<path d="M16.4391 6.51369L14.6013 8.35165C14.1073 8.21985 13.5586 8.34726 13.171 8.73479C12.5927 9.31305 12.5927 10.2507 13.171 10.829C13.7494 11.4073 14.687 11.4073 15.2653 10.829C15.6528 10.4414 15.7802 9.8927 15.6484 9.39875L17.4862 7.56083C18.35 7.98697 19.4265 7.84175 20.1445 7.12379L20.7316 6.53669L17.4632 3.26834L16.8761 3.85545C16.1582 4.5734 16.013 5.64992 16.4391 6.51369Z" fill="#8DA05E"/>
<path d="M18.5083 2.22332L20.7292 0.00239254L23.9971 3.27023L21.7761 5.49116L18.5083 2.22332Z" fill="#8DA05E"/>
</svg>
