<svg width="185" height="67" viewBox="0 0 185 67" fill="none" xmlns="http://www.w3.org/2000/svg">
<path d="M4.53958 62.8231C3.26073 61.8348 2.2144 60.5269 1.40058 58.8993C0.586768 57.2717 0.179861 55.2953 0.179861 52.9701C0.179861 50.9355 0.528638 48.8719 1.22619 46.7793C1.98188 44.6285 3.34793 42.8555 5.32433 41.4604C7.30074 40.0072 10.1491 39.2806 13.8694 39.2806H16.2236L8.46333 25.4166H4.53958L0.179861 16.6972H14.7413L27.3845 39.2806H37.2375V48H32.1802L38.1966 58.7249L30.9595 65.4389L21.1937 48H13.8694C13.1137 48 12.2418 48.2035 11.2536 48.6104C10.3235 49.0754 9.4806 49.7439 8.72491 50.6158C8.02736 51.5459 7.67858 52.7666 7.67858 54.278C7.67858 56.6032 8.23081 58.4343 9.33528 59.7712C10.4979 61.1082 11.922 62.0383 13.6078 62.5615C15.3517 63.1428 17.1246 63.3753 18.9267 63.259C20.7868 63.2009 22.4144 62.9684 23.8096 62.5615C22.1819 63.7241 20.1765 64.5669 17.7931 65.0901C15.468 65.6133 13.1137 65.7005 10.7304 65.3517C8.4052 65.0029 6.3416 64.16 4.53958 62.8231ZM61.3985 66.0573C60.0034 66.0573 58.8118 65.5632 57.8236 64.575C56.8353 63.5868 56.3412 62.3951 56.3412 61C56.3412 59.6049 56.8353 58.4132 57.8236 57.425C58.8118 56.4368 60.0034 55.9427 61.3985 55.9427C62.7936 55.9427 63.9853 56.4368 64.9735 57.425C65.9617 58.4132 66.4558 59.6049 66.4558 61C66.4558 62.3951 65.9617 63.5868 64.9735 64.575C63.9853 65.5632 62.7936 66.0573 61.3985 66.0573ZM46.3139 66.0573C44.9188 66.0573 43.7271 65.5632 42.7389 64.575C41.7507 63.5868 41.2566 62.3951 41.2566 61C41.2566 59.6049 41.7507 58.4132 42.7389 57.425C43.7271 56.4368 44.9188 55.9427 46.3139 55.9427C47.709 55.9427 48.9007 56.4368 49.8889 57.425C50.8771 58.4132 51.3712 59.6049 51.3712 61C51.3712 62.3951 50.8771 63.5868 49.8889 64.575C48.9007 65.5632 47.709 66.0573 46.3139 66.0573ZM33.5522 48V39.2806H59.7105V23.7599L68.4299 21.8417V39.2806H78.8933V48H65.2909C65.1747 48 65.0875 48 65.0294 48C64.9712 48 64.9422 48 64.9422 48H33.5522ZM75.4464 48V39.2806H85.9097V17.6563L94.6291 15.7381V39.2806H105.092V48H91.4901C91.3739 48 91.2867 48 91.2286 48C91.1704 48 91.1414 48 91.1414 48H75.4464ZM110.603 66.0573C109.208 66.0573 108.016 65.5632 107.028 64.575C106.04 63.5868 105.545 62.3951 105.545 61C105.545 59.6049 106.04 58.4132 107.028 57.425C108.016 56.4368 109.208 55.9427 110.603 55.9427C111.998 55.9427 113.19 56.4368 114.178 57.425C115.166 58.4132 115.66 59.6049 115.66 61C115.66 62.3951 115.166 63.5868 114.178 64.575C113.19 65.5632 111.998 66.0573 110.603 66.0573ZM101.588 48V39.2806H112.051V23.7599L120.77 21.8417V39.2806H129.49V19.4002L138.209 17.4819V39.2806H146.929V15.0405L155.648 13.1222V39.2806H166.112V48H101.588ZM179.162 11.0573C177.767 11.0573 176.575 10.5632 175.587 9.57497C174.599 8.58677 174.105 7.39511 174.105 6C174.105 4.60489 174.599 3.41323 175.587 2.42503C176.575 1.43682 177.767 0.942723 179.162 0.942723C180.557 0.942723 181.749 1.43682 182.737 2.42503C183.725 3.41323 184.219 4.60489 184.219 6C184.219 7.39511 183.725 8.58677 182.737 9.57497C181.749 10.5632 180.557 11.0573 179.162 11.0573ZM164.077 11.0573C162.682 11.0573 161.491 10.5632 160.502 9.57497C159.514 8.58677 159.02 7.39511 159.02 6C159.02 4.60489 159.514 3.41323 160.502 2.42503C161.491 1.43682 162.682 0.942723 164.077 0.942723C165.473 0.942723 166.664 1.43682 167.652 2.42503C168.641 3.41323 169.135 4.60489 169.135 6C169.135 7.39511 168.641 8.58677 167.652 9.57497C166.664 10.5632 165.473 11.0573 164.077 11.0573ZM162.641 48V39.2806H173.104V23.7599L181.824 21.8417V45.9945C181.824 46.6921 181.533 47.1862 180.952 47.4768C180.37 47.7675 179.789 47.9419 179.208 48C178.626 48 178.336 48 178.336 48H162.641Z" fill="#8DA05E"/>
</svg>
